<svg width="64" height="64" viewBox="0 0 64 64" fill="none" xmlns="http://www.w3.org/2000/svg">
  <defs>
    <linearGradient id="brushGradient" x1="0%" y1="0%" x2="100%" y2="100%">
      <stop offset="0%" style="stop-color:#f4d03f;stop-opacity:1" />
      <stop offset="50%" style="stop-color:#d4af37;stop-opacity:1" />
      <stop offset="100%" style="stop-color:#b8860b;stop-opacity:1" />
    </linearGradient>
    <linearGradient id="bristlesGradient" x1="0%" y1="0%" x2="0%" y2="100%">
      <stop offset="0%" style="stop-color:#8b4513;stop-opacity:1" />
      <stop offset="50%" style="stop-color:#a0522d;stop-opacity:1" />
      <stop offset="100%" style="stop-color:#654321;stop-opacity:1" />
    </linearGradient>
    <filter id="brushGlow">
      <feGaussianBlur stdDeviation="1.5" result="coloredBlur"/>
      <feMerge> 
        <feMergeNode in="coloredBlur"/>
        <feMergeNode in="SourceGraphic"/>
      </feMerge>
    </filter>
  </defs>
  
  <!-- Shadow -->
  <ellipse cx="32" cy="58" rx="12" ry="3" fill="rgba(0,0,0,0.2)"/>
  
  <g filter="url(#brushGlow)">
    <!-- Handle -->
    <rect x="28" y="35" width="8" height="20" fill="url(#brushGradient)" stroke="#b8860b" stroke-width="1" rx="4"/>
    
    <!-- Handle details -->
    <rect x="29" y="37" width="6" height="1" fill="#ffffff" opacity="0.3" rx="0.5"/>
    <rect x="29" y="40" width="6" height="1" fill="#ffffff" opacity="0.2" rx="0.5"/>
    <rect x="29" y="43" width="6" height="1" fill="#ffffff" opacity="0.2" rx="0.5"/>
    <rect x="29" y="46" width="6" height="1" fill="#ffffff" opacity="0.3" rx="0.5"/>
    
    <!-- Ferrule (metal band) -->
    <rect x="27" y="30" width="10" height="8" fill="url(#brushGradient)" stroke="#b8860b" stroke-width="1" rx="1"/>
    <rect x="28" y="31" width="8" height="1" fill="#ffffff" opacity="0.4"/>
    <rect x="28" y="33" width="8" height="1" fill="#ffffff" opacity="0.2"/>
    <rect x="28" y="35" width="8" height="1" fill="#ffffff" opacity="0.4"/>
    
    <!-- Bristles -->
    <g fill="url(#bristlesGradient)">
      <!-- Individual bristles -->
      <rect x="29" y="8" width="1" height="22" rx="0.5"/>
      <rect x="31" y="6" width="1" height="24" rx="0.5"/>
      <rect x="33" y="8" width="1" height="22" rx="0.5"/>
      <rect x="35" y="7" width="1" height="23" rx="0.5"/>
      <rect x="30" y="5" width="1" height="25" rx="0.5"/>
      <rect x="32" y="7" width="1" height="23" rx="0.5"/>
      <rect x="34" y="6" width="1" height="24" rx="0.5"/>
      
      <!-- More bristles for density -->
      <rect x="28.5" y="9" width="0.5" height="21" rx="0.25"/>
      <rect x="30.5" y="7" width="0.5" height="23" rx="0.25"/>
      <rect x="32.5" y="8" width="0.5" height="22" rx="0.25"/>
      <rect x="34.5" y="7" width="0.5" height="23" rx="0.25"/>
      <rect x="31.5" y="6" width="0.5" height="24" rx="0.25"/>
      <rect x="33.5" y="8" width="0.5" height="22" rx="0.25"/>
      <rect x="35.5" y="9" width="0.5" height="21" rx="0.25"/>
    </g>
    
    <!-- Bristles highlights -->
    <g fill="#a0522d" opacity="0.6">
      <rect x="30" y="8" width="0.3" height="20" rx="0.15"/>
      <rect x="32" y="9" width="0.3" height="19" rx="0.15"/>
      <rect x="34" y="8" width="0.3" height="20" rx="0.15"/>
    </g>
  </g>
</svg>
