<svg width="64" height="64" viewBox="0 0 64 64" fill="none" xmlns="http://www.w3.org/2000/svg">
  <defs>
    <linearGradient id="scissorsGradient" x1="0%" y1="0%" x2="100%" y2="100%">
      <stop offset="0%" style="stop-color:#f4d03f;stop-opacity:1" />
      <stop offset="50%" style="stop-color:#d4af37;stop-opacity:1" />
      <stop offset="100%" style="stop-color:#b8860b;stop-opacity:1" />
    </linearGradient>
    <filter id="glow">
      <feGaussianBlur stdDeviation="2" result="coloredBlur"/>
      <feMerge> 
        <feMergeNode in="coloredBlur"/>
        <feMergeNode in="SourceGraphic"/>
      </feMerge>
    </filter>
  </defs>
  
  <!-- Shadow -->
  <ellipse cx="32" cy="58" rx="20" ry="4" fill="rgba(0,0,0,0.2)"/>
  
  <!-- Scissors body -->
  <g filter="url(#glow)">
    <!-- Left blade -->
    <path d="M8 12 L32 32 L8 52 Q4 52 4 48 L4 16 Q4 12 8 12 Z" fill="url(#scissorsGradient)" stroke="#b8860b" stroke-width="1"/>
    
    <!-- Right blade -->
    <path d="M56 12 L32 32 L56 52 Q60 52 60 48 L60 16 Q60 12 56 12 Z" fill="url(#scissorsGradient)" stroke="#b8860b" stroke-width="1"/>
    
    <!-- Left handle circle -->
    <circle cx="12" cy="16" r="8" fill="url(#scissorsGradient)" stroke="#b8860b" stroke-width="1"/>
    <circle cx="12" cy="16" r="5" fill="none" stroke="#ffffff" stroke-width="1" opacity="0.3"/>
    
    <!-- Right handle circle -->
    <circle cx="52" cy="16" r="8" fill="url(#scissorsGradient)" stroke="#b8860b" stroke-width="1"/>
    <circle cx="52" cy="16" r="5" fill="none" stroke="#ffffff" stroke-width="1" opacity="0.3"/>
    
    <!-- Center pivot -->
    <circle cx="32" cy="32" r="4" fill="#b8860b" stroke="#d4af37" stroke-width="1"/>
    <circle cx="32" cy="32" r="2" fill="#f4d03f"/>
    
    <!-- Blade edges -->
    <path d="M8 24 L28 32 L8 40" fill="none" stroke="#ffffff" stroke-width="1" opacity="0.5"/>
    <path d="M56 24 L36 32 L56 40" fill="none" stroke="#ffffff" stroke-width="1" opacity="0.5"/>
  </g>
</svg>
