<svg width="600" height="800" viewBox="0 0 600 800" fill="none" xmlns="http://www.w3.org/2000/svg">
  <defs>
    <linearGradient id="bgGradient" x1="0%" y1="0%" x2="100%" y2="100%">
      <stop offset="0%" style="stop-color:#1a1a1a;stop-opacity:1" />
      <stop offset="50%" style="stop-color:#0f0f0f;stop-opacity:1" />
      <stop offset="100%" style="stop-color:#000000;stop-opacity:1" />
    </linearGradient>
    <linearGradient id="goldAccent" x1="0%" y1="0%" x2="100%" y2="0%">
      <stop offset="0%" style="stop-color:#f4d03f;stop-opacity:1" />
      <stop offset="50%" style="stop-color:#d4af37;stop-opacity:1" />
      <stop offset="100%" style="stop-color:#b8860b;stop-opacity:1" />
    </linearGradient>
    <filter id="heroGlow">
      <feGaussianBlur stdDeviation="3" result="coloredBlur"/>
      <feMerge> 
        <feMergeNode in="coloredBlur"/>
        <feMergeNode in="SourceGraphic"/>
      </feMerge>
    </filter>
  </defs>
  
  <!-- Background -->
  <rect width="600" height="800" fill="url(#bgGradient)"/>
  
  <!-- Barber chair silhouette -->
  <g filter="url(#heroGlow)" transform="translate(150, 200)">
    <!-- Chair base -->
    <ellipse cx="150" cy="550" rx="80" ry="20" fill="#333333"/>
    <rect x="120" y="500" width="60" height="50" fill="#444444" rx="5"/>
    
    <!-- Chair seat -->
    <ellipse cx="150" cy="400" rx="100" ry="40" fill="url(#goldAccent)"/>
    <rect x="50" y="360" width="200" height="80" fill="url(#goldAccent)" rx="40"/>
    
    <!-- Chair back -->
    <rect x="80" y="200" width="140" height="180" fill="url(#goldAccent)" rx="70"/>
    <rect x="90" y="210" width="120" height="160" fill="#b8860b" rx="60"/>
    
    <!-- Chair arms -->
    <rect x="30" y="320" width="40" height="80" fill="url(#goldAccent)" rx="20"/>
    <rect x="230" y="320" width="40" height="80" fill="url(#goldAccent)" rx="20"/>
    
    <!-- Headrest -->
    <ellipse cx="150" cy="180" rx="60" ry="30" fill="url(#goldAccent)"/>
    
    <!-- Chair details -->
    <circle cx="150" cy="250" r="8" fill="#ffffff" opacity="0.3"/>
    <circle cx="150" cy="280" r="8" fill="#ffffff" opacity="0.3"/>
    <circle cx="150" cy="310" r="8" fill="#ffffff" opacity="0.3"/>
  </g>
  
  <!-- Decorative elements -->
  <g opacity="0.3">
    <!-- Left side decorations -->
    <circle cx="80" cy="150" r="3" fill="url(#goldAccent)"/>
    <circle cx="60" cy="200" r="2" fill="url(#goldAccent)"/>
    <circle cx="90" cy="250" r="4" fill="url(#goldAccent)"/>
    
    <!-- Right side decorations -->
    <circle cx="520" cy="180" r="3" fill="url(#goldAccent)"/>
    <circle cx="540" cy="230" r="2" fill="url(#goldAccent)"/>
    <circle cx="510" cy="280" r="4" fill="url(#goldAccent)"/>
  </g>
  
  <!-- Floating barber tools -->
  <g opacity="0.4">
    <!-- Scissors floating -->
    <g transform="translate(100, 100) rotate(15)">
      <path d="M0 0 L20 20 L0 40 Q-4 40 -4 36 L-4 4 Q-4 0 0 0 Z" fill="url(#goldAccent)"/>
      <path d="M40 0 L20 20 L40 40 Q44 40 44 36 L44 4 Q44 0 40 0 Z" fill="url(#goldAccent)"/>
      <circle cx="4" cy="8" r="6" fill="url(#goldAccent)"/>
      <circle cx="36" cy="8" r="6" fill="url(#goldAccent)"/>
    </g>
    
    <!-- Razor floating -->
    <g transform="translate(450, 120) rotate(-20)">
      <rect x="0" y="20" width="12" height="30" fill="url(#goldAccent)" rx="6"/>
      <path d="M12 25 L35 10 Q38 8 40 12 Q38 16 35 14 L12 29 Z" fill="#e8e8e8"/>
    </g>
    
    <!-- Brush floating -->
    <g transform="translate(80, 450) rotate(10)">
      <rect x="8" y="20" width="8" height="25" fill="url(#goldAccent)" rx="4"/>
      <rect x="6" y="15" width="12" height="8" fill="url(#goldAccent)" rx="2"/>
      <rect x="9" y="0" width="1" height="15" fill="#8b4513"/>
      <rect x="11" y="2" width="1" height="13" fill="#8b4513"/>
      <rect x="13" y="1" width="1" height="14" fill="#8b4513"/>
    </g>
  </g>
  
  <!-- Light rays -->
  <g opacity="0.1">
    <path d="M300 0 L320 800" stroke="url(#goldAccent)" stroke-width="1"/>
    <path d="M200 0 L250 800" stroke="url(#goldAccent)" stroke-width="0.5"/>
    <path d="M400 0 L350 800" stroke="url(#goldAccent)" stroke-width="0.5"/>
  </g>
</svg>
